<?xml version="1.0" standalone="no"?>
<!DOCTYPE svg PUBLIC "-//W3C//DTD SVG 20010904//EN"
 "http://www.w3.org/TR/2001/REC-SVG-20010904/DTD/svg10.dtd">
<svg version="1.0" xmlns="http://www.w3.org/2000/svg"
 width="968.000000pt" height="968.000000pt" viewBox="0 0 968.000000 968.000000"
 preserveAspectRatio="xMidYMid meet">
<metadata>
Created by potrace 1.14, written by Peter Selinger 2001-2017
</metadata>
<g transform="translate(0.000000,968.000000) scale(0.100000,-0.100000)"
fill="#000000" stroke="none">
<path d="M4725 9362 c-60 -35 -229 -133 -375 -217 -146 -84 -321 -186 -390
-225 -69 -40 -215 -124 -325 -188 -110 -63 -243 -140 -295 -170 -85 -49 -128
-74 -250 -145 -19 -11 -55 -31 -80 -45 -25 -14 -73 -42 -107 -63 -34 -21 -83
-50 -110 -64 -26 -14 -64 -35 -83 -46 -19 -12 -269 -156 -554 -321 -286 -165
-533 -309 -550 -319 -17 -10 -38 -22 -46 -26 -8 -4 -59 -33 -113 -65 -54 -32
-100 -58 -101 -58 -2 0 -66 -37 -142 -82 -76 -44 -164 -95 -194 -111 -30 -17
-66 -38 -80 -47 -14 -9 -33 -20 -42 -23 -10 -4 -18 -17 -19 -29 0 -13 -1
-1046 -1 -2296 -1 -2227 -1 -2273 18 -2287 10 -7 37 -23 59 -35 22 -11 58 -32
80 -45 22 -14 47 -28 55 -32 8 -3 39 -21 68 -40 29 -18 54 -33 57 -33 2 0 42
-22 87 -49 46 -27 99 -58 118 -68 19 -11 123 -71 230 -133 107 -62 209 -121
225 -130 25 -14 236 -136 385 -223 19 -11 53 -30 75 -42 100 -56 503 -289 527
-306 15 -11 29 -19 32 -19 3 0 27 -13 54 -29 26 -15 68 -40 93 -53 24 -14 106
-62 183 -107 76 -44 140 -81 142 -81 3 0 21 -11 42 -24 33 -21 307 -180 407
-236 22 -13 54 -31 70 -41 17 -11 37 -22 45 -26 8 -4 133 -76 278 -160 144
-84 267 -153 272 -153 6 0 10 -4 10 -10 0 -5 4 -10 9 -10 9 0 315 -174 337
-191 7 -6 77 29 195 97 101 59 258 149 349 202 283 163 424 244 455 264 17 10
36 21 44 25 8 3 64 35 125 71 61 35 361 209 666 385 305 176 614 354 685 395
458 265 888 513 935 539 24 14 80 46 125 73 44 26 148 86 230 134 83 47 156
90 164 95 12 8 14 333 13 2278 0 1247 -1 2280 -1 2296 -1 18 -8 31 -23 38 -13
5 -32 15 -43 22 -11 7 -51 30 -90 52 -38 22 -77 45 -87 50 -50 30 -137 80
-163 95 -33 19 -683 394 -840 485 -55 32 -113 66 -130 75 -29 17 -251 145
-585 338 -91 52 -190 110 -220 127 -30 17 -131 76 -225 130 -93 54 -260 150
-370 213 -110 63 -233 135 -272 159 -40 23 -75 43 -78 43 -2 0 -29 16 -59 35
-30 19 -57 35 -60 35 -2 0 -37 20 -78 43 -85 51 -462 268 -528 305 -25 14 -56
32 -70 42 -14 9 -32 19 -40 22 -8 2 -64 -24 -125 -60z"/>
</g>
</svg>
